External Loads File
version=1
nRows=62
nColumns=13
Range=5.000000e-03-10 seconds
endheader
time 	forceRightX 	forceRightY 	forceRightZ 	pointRightX 	pointRightY 	pointRightZ 	forceLeftX 	forceLeftY 	forceLeftZ 	pointLeftX 	pointLeftY 	pointLeftZ 		
7.505000 414.461232 980.559200 -0.000000 0.304575 0.132281 -0.136593 -58.180742 -48.148532 -0.000000 0.317245 0.466408 -0.372529
7.510000 406.597022 903.815564 -0.000000 0.295642 0.130521 -0.136739 -69.879636 -40.691654 -0.000000 0.327660 0.467571 -0.372231
7.515000 394.943617 822.203014 -0.000000 0.286304 0.130288 -0.137299 -82.106789 -33.117256 -0.000000 0.338276 0.468086 -0.372021
7.520000 376.815637 739.498752 -0.000000 0.277266 0.130094 -0.137593 -94.755446 -26.159964 -0.000000 0.348614 0.467977 -0.371600
7.525000 354.565046 657.106539 -0.000000 0.268335 0.130644 -0.137977 -107.852975 -20.064786 -0.000000 0.358862 0.467260 -0.371240
7.530000 329.599859 576.535265 -0.000000 0.259485 0.131845 -0.138280 -121.267875 -14.958337 -0.000000 0.369166 0.466053 -0.370839
7.535000 302.682475 499.243159 -0.000000 0.250683 0.133674 -0.138819 -134.731387 -10.906097 -0.000000 0.379237 0.464265 -0.370467
7.540000 274.610468 426.214367 -0.000000 0.242105 0.136186 -0.138909 -147.876620 -7.852696 -0.000000 0.389005 0.461933 -0.370074
7.545000 246.323644 357.807717 -0.000000 0.233816 0.139119 -0.139097 -160.277866 -5.517488 -0.000000 0.398675 0.458951 -0.369455
7.550000 218.204830 294.193429 -0.000000 0.225746 0.142666 -0.139385 -171.491272 -3.566733 -0.000000 0.408047 0.455415 -0.368881
7.555000 190.230773 235.443483 -0.000000 0.218108 0.146799 -0.139663 -181.123652 -1.696321 -0.000000 0.416959 0.451243 -0.368490
7.560000 162.441267 181.545444 -0.000000 0.210897 0.151386 -0.139904 -188.914452 0.432467 -0.000000 0.425312 0.446645 -0.368175
7.565000 135.162011 132.435481 -0.000000 0.204100 0.156103 -0.139980 -194.794223 3.313726 -0.000000 0.433284 0.441487 -0.367760
7.570000 108.891419 88.060438 -0.000000 0.197737 0.161616 -0.139986 -198.887609 7.648949 -0.000000 0.440682 0.435670 -0.367381
7.575000 84.101165 48.637327 -0.000000 0.191756 0.167588 -0.140046 -201.505918 13.950860 -0.000000 0.447515 0.429320 -0.367225
7.580000 61.499738 14.321050 -0.000000 0.186256 0.173800 -0.140005 -203.156354 22.751683 -0.000000 0.453590 0.422488 -0.367226
7.585000 41.821572 -15.128098 -0.000000 0.181153 0.180574 -0.139813 -204.462687 35.151437 -0.000000 0.458748 0.414975 -0.367432
7.590000 25.469273 -40.117793 -0.000000 0.176414 0.187650 -0.139733 -206.113695 52.144122 -0.000000 0.463494 0.407206 -0.367715
7.595000 12.519758 -61.242283 -0.000000 0.172281 0.195363 -0.139807 -208.645798 75.053163 -0.000000 0.467561 0.398921 -0.367997
7.600000 2.640595 -79.025729 -0.000000 0.167879 0.203828 -0.140854 -212.152418 105.543879 -0.000000 0.470664 0.389962 -0.368394
7.605000 -4.299170 -93.783947 -0.000000 0.164321 0.212565 -0.141252 -216.898956 144.003843 -0.000000 0.472970 0.380834 -0.368830
7.610000 -8.872399 -105.680044 -0.000000 0.161292 0.221684 -0.141763 -222.470936 191.507542 -0.000000 0.474396 0.371288 -0.369245
7.615000 -11.472431 -114.702085 -0.000000 0.158789 0.230994 -0.141633 -228.520504 248.198400 -0.000000 0.475196 0.361625 -0.370517
7.620000 -12.535864 -120.724072 -0.000000 0.156880 0.240554 -0.141160 -234.258148 314.050920 -0.000000 0.475138 0.351508 -0.370785
7.625000 -12.077561 -123.638655 -0.000000 0.155518 0.250379 -0.141227 -239.538587 387.947593 -0.000000 0.474409 0.341546 -0.370889
7.630000 -10.182467 -123.409516 -0.000000 0.154797 0.260215 -0.141302 -244.031162 468.612441 -0.000000 0.473141 0.331320 -0.370880
7.635000 -6.802337 -120.189766 -0.000000 0.154636 0.270206 -0.141275 -248.050486 554.271002 -0.000000 0.471352 0.321097 -0.370820
7.640000 -2.189643 -114.359480 -0.000000 0.155156 0.280476 -0.142156 -251.034297 643.606214 -0.000000 0.469211 0.310501 -0.370964
7.645000 3.637472 -106.534058 -0.000000 0.156217 0.290702 -0.141922 -254.215006 734.515425 -0.000000 0.466866 0.299808 -0.371011
7.650000 10.303495 -97.385069 -0.000000 0.157870 0.300967 -0.141605 -258.153221 825.254929 -0.000000 0.464182 0.289235 -0.370895
7.655000 17.174424 -87.476906 -0.000000 0.160204 0.311321 -0.141311 -262.266311 914.779747 -0.000000 0.461077 0.278677 -0.370890
7.660000 23.744069 -77.093089 -0.000000 0.163299 0.321509 -0.141068 -267.020412 1002.350237 -0.000000 0.457517 0.268242 -0.370500
7.665000 29.561271 -66.246205 -0.000000 0.166834 0.331362 -0.140458 -272.181959 1087.977852 -0.000000 0.453479 0.257868 -0.370344
7.670000 34.305676 -54.869853 -0.000000 0.171064 0.341189 -0.140155 -275.436707 1172.412712 -0.000000 0.448802 0.247641 -0.370248
7.675000 38.098637 -42.870029 -0.000000 0.175917 0.350733 -0.139827 -276.988648 1255.807865 -0.000000 0.443586 0.237752 -0.370272
7.680000 41.255812 -30.377742 -0.000000 0.181090 0.359837 -0.139469 -275.851899 1338.562528 -0.000000 0.437921 0.227997 -0.370468
7.685000 44.257044 -17.810754 -0.000000 0.187107 0.368306 -0.139681 -271.468283 1420.776935 -0.000000 0.431804 0.218688 -0.370710
7.690000 47.394870 -5.838119 -0.000000 0.193116 0.376384 -0.139088 -262.912017 1502.191990 -0.000000 0.425252 0.209753 -0.370799
7.695000 50.487939 4.721357 -0.000000 0.200072 0.384583 -0.138696 -243.976330 1582.736177 -0.000000 0.418339 0.201274 -0.370968
7.700000 52.948576 13.544859 -0.000000 0.207603 0.392499 -0.138329 -214.304213 1660.446086 -0.000000 0.410876 0.193142 -0.370869
7.705000 53.991606 20.838101 -0.000000 0.215488 0.400220 -0.137969 -175.450334 1732.566269 -0.000000 0.403161 0.185645 -0.370843
7.710000 53.031133 27.150112 -0.000000 0.223803 0.407325 -0.137690 -126.357363 1796.227265 -0.000000 0.395011 0.178516 -0.370908
7.715000 49.842754 33.318143 -0.000000 0.232597 0.414305 -0.137330 -65.981905 1848.076737 -0.000000 0.386480 0.171962 -0.370932
7.720000 44.503884 40.429916 -0.000000 0.241626 0.420654 -0.137069 1.382950 1884.449667 -0.000000 0.377610 0.165980 -0.370988
7.725000 37.472573 49.408416 -0.000000 0.250749 0.426541 -0.137117 72.798244 1902.313985 -0.000000 0.368488 0.160682 -0.371102
7.730000 29.596714 60.806251 -0.000000 0.260638 0.431893 -0.136692 149.006282 1899.117734 -0.000000 0.359221 0.156052 -0.371030
7.735000 21.705328 74.845527 -0.000000 0.270913 0.436570 -0.136031 224.915388 1873.430264 -0.000000 0.349788 0.152002 -0.371059
7.740000 14.334660 91.178485 -0.000000 0.280751 0.440283 -0.135978 292.257259 1825.858123 -0.000000 0.340168 0.148584 -0.371249
7.745000 8.215601 108.727089 -0.000000 0.291016 0.443307 -0.135709 353.735393 1756.894120 -0.000000 0.330448 0.145838 -0.371529
7.750000 3.424969 126.016487 -0.000000 0.301463 0.445593 -0.135462 405.232257 1668.954839 -0.000000 0.320722 0.143786 -0.371724
7.755000 -0.349484 141.466288 -0.000000 0.311962 0.447455 -0.134892 444.998813 1565.108277 -0.000000 0.310944 0.142376 -0.371974
7.760000 -3.840503 153.875465 -0.000000 0.322434 0.448569 -0.134424 471.648896 1449.122573 -0.000000 0.301169 0.141553 -0.372309
7.765000 -7.885898 162.663396 -0.000000 0.332843 0.449434 -0.134037 484.782623 1324.979222 -0.000000 0.291495 0.141480 -0.372675
7.770000 -13.054235 167.873398 -0.000000 0.343160 0.449763 -0.133618 485.296698 1196.347713 -0.000000 0.281923 0.141890 -0.373000
7.775000 -19.461571 170.064187 -0.000000 0.353352 0.449326 -0.133342 474.919157 1066.400021 -0.000000 0.272513 0.143045 -0.373439
7.780000 -26.868286 170.106132 -0.000000 0.363303 0.448426 -0.133070 455.166455 938.099395 -0.000000 0.263210 0.144800 -0.373828
7.785000 -34.588756 168.944260 -0.000000 0.373112 0.446975 -0.132788 428.386279 813.659929 -0.000000 0.254073 0.147249 -0.374313
7.790000 -41.947122 167.338711 -0.000000 0.382686 0.444793 -0.132564 396.192021 695.218204 -0.000000 0.245193 0.150312 -0.374834
7.795000 -48.380079 165.792336 -0.000000 0.391973 0.442025 -0.132234 360.234413 584.481800 -0.000000 0.236567 0.153970 -0.375299
7.800000 -53.548931 164.593233 -0.000000 0.400925 0.438697 -0.131835 322.008554 482.801750 -0.000000 0.228315 0.158214 -0.375708
7.805000 -57.146236 163.923003 -0.000000 0.409422 0.434641 -0.131387 283.141455 390.916805 -0.000000 0.220483 0.163044 -0.376159
7.810000 -58.962537 163.859766 -0.000000 0.417397 0.430078 -0.130896 244.912982 309.191036 -0.000000 0.213016 0.168341 -0.376633
